<?xml version="1.0" encoding="UTF-8" standalone="no"?>
<svg xmlns="http://www.w3.org/2000/svg" viewBox="0 0 100 100">
  <path fil="#000" d="M215.55007 206.44955c-13.86939-47.74268.32256-112.259787 22.25556-121.292186 21.93301-9.0324 68.70193-30.96821 89.98985 85.162596 9.99887 73.22693 12.25668 91.61431 29.02898 107.74358 16.7723 16.12929-12.90177 11.61309 7.74107 161.29279 6.02686 6.48427 14.73063 31.9334 22.07931 52.00083 18.28563 121.13801 40.61382 115.49223 62.42728 128.00192 10.71314 6.14384 28.10342 22.92271 30.96424 52.25887 3.07026 31.48373-17.25611-25.00038-17.25611-4.03231 0 17.10972-.53242 13.97366-2.30463 14.70395-2.73828-4.97909-3.10726-12.23825-4.55336-22.34145-.70646-4.93571-7.07992-8.16689-9.70108-9.37507-1.524-.70246.28545 10.78064-2.144 11.86131-5.27238 2.34525-12.21241 8.20536-13.71263 8.21582-1.49917-7.79465 8.732-7.0002 9.0173-12.65205.24201-4.79462 1.83575-7.05514-1.7864-10.22219-3.93011-3.43633-8.91808-7.05731-23.75499-10.41692-20.02623 2.27491-61.33163-119.41686-82.35679-158.12703-1.16464-138.28727-32.56321-124.60012-58.99792-43.28069 22.1179 51.33429 74.29481 62.29749 68.85659 143.40716 1.93526 70.96882-180.1038 224.26577-180.1038 224.26577s86.9018 203.36085 256.9476 101.01121c12.09093-144.74211 32.07233-158.90517 36.1495-163.10975 140.05513-85.90761 94.78677-225.5024 94.78677-225.5024s99.06627 72.30547 15.08852 281.32468c133.10999.28495 156.22207-158.36654 156.22207-158.36654s46.70247 295.39557-258.49153 281.05987C258.7267 1074.4166 48.389023 878.01769 41.943013 813.43149 31.227648 706.06813 162.36311 669.16207 169.74879 542.58373c9.08279-155.66375-39.35039 47.09748-39.35039 47.09748s9.23501 37.87749 8.38615 45.16198c-.63458.43207-6.74782 10.45649-6.53117 7.85278-2.88947-12.62514-3.53652-46.43743-12.52999 15.22972-14.05109 32.64662-6.79364-45.60049-19.3534 17.89556-6.732167 35.7471-7.73978-27.27122-3.78705-41.34391 19.49662-69.41269 25.80718-145.25546 29.4997-152.03085 20.58344-37.76831 33.71605-91.52307 26.47272-109.85369-15.43892-39.07107 12.44955-56.09027 12.44955-56.09027s-.45766-44.20759 11.48517-61.17105c12.21031-20.54744 67.19655 5.22146 39.05999-48.88193z"/>
</svg>
