<?xml version="1.0" encoding="UTF-8" standalone="no"?>
<svg xmlns="http://www.w3.org/2000/svg" viewBox="0 0 100 100">
  <path d="M35.422025 15.502572c-1.483943-5.10819.03452-12.01114 2.381212-12.977555 2.346705-.96641 7.350704-3.313414 9.628386 9.111894 1.06982 7.834852 1.311392 9.802192 3.10593 11.527934 1.794536 1.725735-1.380413 1.24253.82825 17.25738.64484.693778 1.57609 3.416685 2.362355 5.56378 1.956456 12.96105 4.34544 12.35699 6.679354 13.695452 1.146243.65735 3.0069 2.45259 3.31299 5.591388.3285 3.368578-1.846302-2.67489-1.846302-.431428 0 1.83064-.05697 1.495098-.24658 1.573232-.292982-.532728-.332462-1.309422-.487185-2.3904-.07559-.528093-.75751-.873817-1.03796-1.00308-.163055-.07515.03055 1.153464-.229393 1.26909-.564113.250927-1.306654.877923-1.467172.879044-.160403-.833978.934273-.74898.964797-1.353694.02587-.513.196418-.754858-.191132-1.09372-.4205-.367663-.954185-.755086-2.541644-1.114546-2.14269.243403-6.562123-12.776895-8.811693-16.918663-.124607-14.79592-3.48407-13.331476-6.31243-4.630777 2.366485 5.492468 7.949108 6.665467 7.36725 15.34372.20706 7.593247-19.270045 23.995124-19.270045 23.995124s9.29798 21.758413 27.49188 10.8076c1.29366-15.486544 3.43155-17.001914 3.867786-17.451786C75.955748 63.56096 71.1123 48.625135 71.1123 48.625135s10.59951 7.736264 1.614384 30.10009c14.241987.03045 16.714844-16.944294 16.714844-16.944294s4.99689 31.605598-27.657073 30.07175C40.04167 108.36993 17.53678 87.35641 16.847093 80.44606c-1.14648-11.48725 12.884242-15.435974 13.674467-28.97912.971803-16.6551-4.21026 5.03915-4.21026 5.03915s.98809 4.052675.897268 4.83207c-.0679.04621-.721978 1.118787-.698797.8402-.309155-1.350812-.378385-4.968534-1.340635 1.62949-1.503382 3.493002-.72688-4.878985-2.0707 1.914726-.7203 3.824727-.82811-2.917863-.405192-4.423556 2.086024-7.42675 2.761216-15.54148 3.156294-16.26641 2.202308-4.04098 3.60742-9.792427 2.832426-11.753694-1.651875-4.180373 1.33203-6.001328 1.33203-6.001328s-.04897-4.729956 1.228843-6.54494c1.306433-2.198456 7.189634.558665 4.17919-5.230078z"/>
</svg>
