<svg version="1" xmlns="http://www.w3.org/2000/svg" width="666.667" height="666.667" viewBox="0 0 500.000000 500.000000"><path d="M0 250v250h500V0H0v250zm154.5-81.6c23.4 6.1 39 17.8 48.4 36.2 6.6 13 6.4 11 7.2 86.4.6 71.7.6 70.4 5.3 88.6.9 3.4 1.6 6.7 1.6 7.3 0 .7-4.1 1.1-12.9 1.1-11.3 0-13-.2-13.6-1.8-1.2-3.2-3.3-14.7-4.1-22l-.7-7.2-7.2 6.8c-3.9 3.8-9.2 8.3-11.6 10-7.5 5.1-20 11-29.2 13.6-24.5 7.1-46.4 5.7-67.4-4.4-21.1-10.2-32.7-27.3-34-50.1-1.9-32.4 17.7-56.1 54.7-66.3 16.6-4.6 27.2-5.6 62.4-6.3l32.9-.6-.6-16.6c-.6-19-2.1-25.3-8.2-34.5-4.8-7.2-10.2-11.9-19-16.2-9.4-4.6-18.5-6.4-33.1-6.4-13.8 0-24 2.1-34.2 7.1-12.8 6.2-23.2 19.3-25 31l-.7 5.4-12-.4c-6.6-.2-12.1-.4-12.2-.5-1.1-1 2.7-14.7 5.8-21.3 8.4-17.5 25-30.7 47.9-37.7 12.2-3.8 18.6-4.5 35-4.1 11.5.3 16.6.9 24.5 2.9zm241-1.9c35.2 6.2 60.6 32.2 69.6 71.4 1.4 5.8 2.2 14.1 2.6 25.3l.6 16.8H304.7l.6 11.2c1.8 33.2 20.1 61.1 48.5 74 9 4.1 17.8 5.8 30.5 5.8 23.7 0 41.8-7.1 57.6-22.7l6.3-6.4 7.4 5.6c8.6 6.5 8.6 6-.4 15.2-16 16.2-35.2 25.4-59.7 28.3-51.5 6.2-97.5-24.9-110.9-74.9-6.6-24.7-5.9-56.4 1.9-79.6 6.9-20.4 20.6-40.5 35.6-52.1 21.1-16.2 46.9-22.5 73.4-17.9z"/><path d="M124 280.1c-32.8 2.9-54.1 14-61.2 31.9-1.7 4.3-2.2 7.6-2.2 15.5-.1 8.9.2 10.7 2.6 15.8 5.4 11.5 13.4 18.6 26.4 23.4 9.1 3.4 27 4.3 38.9 2 23.3-4.4 45-18.9 54.3-36.4l3.2-6.1V279l-26.2.1c-14.5.1-30.6.6-35.8 1zM360.2 188c-19.3 5.2-35.1 19.1-45.2 39.6-3.8 7.9-9 24.6-9 29.1v2.3h138.2l-.7-6.8c-3.1-31.3-19.5-54.2-45.2-63.3-8.7-3.1-28.2-3.6-38.1-.9z"/></svg>